<svg xmlns="http://www.w3.org/2000/svg" viewBox="0 0 1200 630">
  <defs>
    <linearGradient id="bg" x1="0" x2="1" y1="0" y2="1">
      <stop offset="0%" stop-color="#09111b"/>
      <stop offset="100%" stop-color="#163754"/>
    </linearGradient>
  </defs>
  <rect width="1200" height="630" fill="url(#bg)"/>
  <g opacity="0.18" stroke="#e7f1ff" stroke-width="1">
    <path d="M0 90h1200M0 180h1200M0 270h1200M0 360h1200M0 450h1200M0 540h1200"/>
    <path d="M120 0v630M240 0v630M360 0v630M480 0v630M600 0v630M720 0v630M840 0v630M960 0v630M1080 0v630"/>
  </g>
  <text x="90" y="220" fill="#ffffff" font-family="Arial, Helvetica, sans-serif" font-size="62" font-weight="700">Aishee Jyoti Dhar</text>
  <text x="90" y="292" fill="#73b5ef" font-family="Arial, Helvetica, sans-serif" font-size="34">Civil Engineer Portfolio</text>
  <text x="90" y="352" fill="#d6e7ff" font-family="Arial, Helvetica, sans-serif" font-size="28">Sustainable Infrastructure • Landscape Design • Water Resources</text>
  <g transform="translate(780,130)">
    <rect x="0" y="0" width="270" height="330" rx="28" fill="rgba(255,255,255,0.06)" stroke="rgba(255,255,255,0.22)"/>
    <path d="M50 240H220" stroke="#ffb35c" stroke-width="5"/>
    <path d="M90 70V240M180 70V240" stroke="#e7f1ff" stroke-width="12"/>
    <path d="M90 128 50 240M180 128 220 240" stroke="#73b5ef" stroke-width="4"/>
  </g>
</svg>